<svg width= "30px" height= "30px"  viewBox="0 0 50 50" fill="none" xmlns="http://www.w3.org/2000/svg">
<path d="M39.8164 32.136C39.6458 32.136 39.4753 32.0736 39.3422 31.9474L31.3639 24.4627C31.0852 24.2021 31.0713 23.7625 31.3334 23.4838C31.5954 23.2024 32.0322 23.1899 32.3137 23.4533L40.2919 30.938C40.5706 31.1986 40.5845 31.6382 40.3225 31.9169C40.1852 32.0625 40.0022 32.136 39.8164 32.136Z" fill="rgb(27, 27, 27)"/>
<path d="M13.1852 32.1363C13.0008 32.1363 12.8164 32.0629 12.6791 31.9173C12.417 31.6386 12.4309 31.199 12.7096 30.9384L20.6906 23.4537C20.9707 23.193 21.4103 23.2041 21.6709 23.4842C21.933 23.7629 21.9191 24.2024 21.6404 24.4631L13.6594 31.9478C13.5263 32.0739 13.3557 32.1363 13.1852 32.1363Z" fill="rgb(27, 27, 27)"/>
<path d="M44.5336 39.0939H8.4664C6.55572 39.0939 5 37.5396 5 35.6275V11.9908C5 10.0787 6.55572 8.52441 8.4664 8.52441H44.5336C46.4443 8.52441 48 10.0787 48 11.9908V35.6275C48 37.5396 46.4443 39.0939 44.5336 39.0939ZM8.4664 9.91097C7.31972 9.91097 6.38656 10.8441 6.38656 11.9908V35.6275C6.38656 36.7742 7.31972 37.7073 8.4664 37.7073H44.5336C45.6803 37.7073 46.6134 36.7742 46.6134 35.6275V11.9908C46.6134 10.8441 45.6803 9.91097 44.5336 9.91097H8.4664Z" fill="rgb(27, 27, 27)"/>
<path d="M26.5002 27.2936C25.5781 27.2936 24.656 26.9871 23.9544 26.3757L6.151 10.8448C5.8626 10.5938 5.83209 10.1557 6.08306 9.86589C6.3368 9.57749 6.77357 9.55114 7.06197 9.79934L24.8654 25.3288C25.7514 26.1011 27.2489 26.1011 28.1335 25.3288L45.9148 9.8243C46.2018 9.57333 46.6386 9.60106 46.8937 9.89085C47.1447 10.1806 47.1155 10.6174 46.8271 10.8698L29.0459 26.3743C28.3429 26.9871 27.4222 27.2936 26.5002 27.2936Z" fill="rgb(27, 27, 27)"/>
<style xmlns="" id="autoconsent-prehide"/></svg>