<svg width= "30px" height= "30px" viewBox="0 0 50 50" fill="none" xmlns="http://www.w3.org/2000/svg">
<path d="M38.6298 44.0851C36.9767 44.0851 34.9801 43.6708 32.7844 42.8423C27.9707 41.0274 22.7334 37.4406 18.0373 32.7445C13.3399 28.047 9.75297 22.8084 7.9368 17.9947C6.28635 13.618 6.28235 10.0257 7.92745 8.38196C8.16399 8.14542 8.40454 7.89151 8.65311 7.62957C10.1539 6.05129 11.8498 4.27522 14.0976 4.3554C15.6465 4.41955 17.1472 5.38175 18.6841 7.29414C23.2252 12.9417 21.1778 14.9544 18.8084 17.2877L18.3901 17.702C18.0025 18.0895 17.2702 19.8843 24.0831 26.6973C26.3069 28.921 28.2032 30.5488 29.7187 31.5337C30.6729 32.1538 32.3795 33.0919 33.0798 32.3917L33.5007 31.9667C35.8314 29.6026 37.844 27.5619 43.4876 32.099C45.4 33.6358 46.3609 35.1353 46.425 36.6868C46.5172 38.9333 44.7278 40.6332 43.1482 42.1326C42.8876 42.3812 42.6337 42.6218 42.3971 42.857C41.5806 43.6748 40.2749 44.0851 38.6298 44.0851ZM13.9372 5.68913C12.3402 5.68913 10.8983 7.20727 9.622 8.55035C9.36541 8.8203 9.11684 9.08223 8.87228 9.32679C7.64681 10.5509 7.77109 13.7676 9.18767 17.5242C10.9383 22.1642 14.417 27.2345 18.9835 31.801C23.5486 36.3648 28.6162 39.8434 33.2575 41.5927C37.0141 43.012 40.2308 43.1323 41.4536 41.9095C41.6982 41.6649 41.9601 41.4163 42.2301 41.1611C43.6025 39.8568 45.1594 38.3787 45.0913 36.7389C45.0445 35.6124 44.224 34.4003 42.6524 33.1374C37.9496 29.3554 36.6346 30.6904 34.4536 32.9022L34.0259 33.3338C32.9835 34.3775 31.2903 34.1463 28.9917 32.6522C27.3974 31.6152 25.4276 29.9287 23.1396 27.6394C17.4854 21.9865 15.6772 18.5265 17.4466 16.7531L17.8729 16.3322C20.09 14.1512 21.4277 12.8348 17.6444 8.12938C16.3788 6.55912 15.168 5.73857 14.0415 5.69046C14.0067 5.68913 13.972 5.68913 13.9372 5.68913Z" fill="rgb(27, 27, 27)"/>
<style xmlns="" id="autoconsent-prehide"/></svg>