<svg preserveAspectRatio="xMidYMid meet" data-bbox="34.2 31.01 262.87 315.615" viewBox="34.2 31.01 262.87 315.615" xmlns="http://www.w3.org/2000/svg" data-type="color" role="presentation" aria-hidden="true" aria-labelledby="svgcid-p9egndp24wly"><title id="svgcid-p9egndp24wly"></title>
    <g>
        <path d="M183.26 186.31v-18.19s-.62-7.82-8.55-7.82c-7.93 0-8.55 7.82-8.55 7.82v18.23c-3.07-.01-6.21-.03-9.38-.05v-18.18s-.61-7.82-8.55-7.82-8.55 7.82-8.55 7.82v17.99l-8.02-.12v-17.1s-.56-7.81-7.71-7.81c-7.16 0-7.71 7.81-7.71 7.81v16.81c-2.61-.06-5.2-.11-7.76-.17v-16.28s-.45-7.31-6.18-7.31c-5.74 0-6.18 7.31-6.18 7.31v15.98l-7.19-.18v-15.19s-.39-7.03-5.46-7.03-5.47 7.03-5.47 7.03v14.89c-1.8-.05-3.56-.1-5.27-.15l.01-14.59s-.33-6.96-4.62-6.96c-4.28 0-4.61 6.96-4.61 6.96v14.31c-1.04-.03-2.06-.07-3.05-.1l.01-13.29s-.23-6.41-3.18-6.41-3.18 6.41-3.18 6.41v13.08c-1.14-.04-2.24-.07-3.29-.11l-.03-13.28s-.14-6.14-1.91-6.14-1.91 6.14-1.91 6.14v13.15c-.8-.03-1.56-.05-2.27-.07l.01-12.3s-.1-5.54-1.46-5.54-1.47 5.54-1.47 5.54v12.19c-2.98-.1-4.43-4.3-4.43-4.3l-1.67-15.47v-6.63c40.99-13.57 155.69-15.33 155.69-15.33l1.77 16.81 12.39 27.13c-6.39.28-13.95.44-22.27.51" fill="#ffffff " data-color="1"></path>
        <path d="M156.13 142.13v-13.68s-.62-7.82-8.55-7.82-8.55 7.82-8.55 7.82v14.53c-2.87.16-5.8.33-8.77.52v-13.87s-.54-7.82-7.44-7.82c-6.91 0-7.44 7.82-7.44 7.82v14.89c-2.5.19-5.01.39-7.52.6v-12.85s-.47-7.5-6.49-7.5c-6.02 0-6.49 7.5-6.49 7.5v14.01c-2.2.21-4.39.43-6.56.66V134.7s-.37-7.14-5.16-7.14S78 134.7 78 134.7v13.43c-1.79.22-3.56.45-5.31.68v-11.86s-.31-6.87-4.31-6.87c-4 0-4.31 6.87-4.31 6.87v13.11c-1.29.2-2.57.4-3.82.61v-11.36s-.23-6.35-3.18-6.35-3.18 6.35-3.18 6.35v12.49c-1.04.19-2.06.4-3.06.6v-10.95s-.14-5.99-1.93-5.99-1.93 5.99-1.93 5.99v11.77c-.81.19-1.61.37-2.4.56v-10.13s-.11-5.99-1.57-5.99c-1.45 0-1.56 5.99-1.56 5.99v10.92c-2.05.54-3.98 1.11-5.77 1.69v-13.22c-1.18-.89-1.47-4.72-1.47-4.72 6.19-31.25 130.92-35.39 130.92-35.39v15.04l9.55 23.43c-5.27.2-11.56.42-18.54.73" fill="#ffffff " data-color="1"></path>
        <path d="M130.99 104.45v-12.7s-.57-7.82-7.82-7.82-7.81 7.82-7.81 7.82v14.42c-1.74.22-3.5.45-5.27.68V94.91s-.51-7.66-7.04-7.66-7.04 7.66-7.04 7.66V109c-2.3.39-4.53.79-6.71 1.2V98.78s-.39-7.66-5.33-7.66-5.33 7.66-5.33 7.66v13.63c-1.38.32-2.73.64-4.06.97v-9.95s-.34-7.23-4.66-7.23c-4.33 0-4.66 7.23-4.66 7.23v12.51c-1.34.41-2.65.83-3.91 1.25v-6.59s-.21-9.75-2.9-9.75c-2.68 0-2.89 9.75-2.89 9.75v8.7c-1.17.46-2.29.93-3.36 1.41v-8.54s-.15-6.1-2.14-6.1-2.14 6.1-2.14 6.1v10.61c-.92.49-1.81.98-2.64 1.48v-8.21s-.12-5.76-1.58-5.76c-1.47 0-1.58 5.76-1.58 5.76v10.29c-1.86 1.34-3.44 2.73-4.73 4.17l-.1-10.08c-1.92-2.65-1.62-5.54-1.62-5.54C40.09 87 120.6 71.1 120.6 71.1l1.47-5.6h18.87v17.7l7.32 19.81c-5.01.35-10.88.82-17.27 1.44" fill="#ffffff " data-color="1"></path>
        <path d="m120.6 37.49-7.37-6.48S51.6 43.39 38.63 75.83v10.32l.83 18.81c6.63-8.24 20.03-16.03 40.04-23.25 18.63-6.72 37.02-10.66 40.39-11.35l1.51-5.73h14.79L120.6 37.49zM59.78 78.84l-2.51 1.99v-6.7l2.51-1.77v6.48zM87.13 66.9l-4.27 1.7V61l4.27-1.62v7.52z" fill="#ffffff " data-color="1"></path>
        <path d="M229.4 184.65v-14.21s-.52-7.82-7.15-7.82c-6.63 0-7.15 7.82-7.15 7.82v14.81l-6.78.29v-15.1s-.61-7.82-8.55-7.82c-1.45 0-2.65.26-3.66.69l-2.2-4.78-1.55-15.37h14.82v2.88l28.75.66v14.6l6.86 22.78-13.39.57z" fill="#ffffff " data-color="1"></path>
        <path d="m208.14 145.23.15-3.02-1.29.01v-9.63s-.61-7.81-8.55-7.81-8.55 7.81-8.55 7.81v8.19l-6.57.17v-5.93s-.52-7.81-7.26-7.81c-2.31 0-3.89.92-4.97 2.13l-4.67-11.6-.16-7.96h47.88v14.82l7.96 20.9-13.97-.27z" fill="#ffffff " data-color="1"></path>
        <path d="M197.11 102.36v6.23l18.06.11.15 15.63 7.91 21.16 2.4.06v-6.03s.38-7.82 5.26-7.82c4.87 0 5.25 7.82 5.25 7.82v6.31l.63.02.07 15.38 3.14 10.37v-1.77s.36-7.31 5.06-7.31c4.7 0 5.07 7.31 5.07 7.31v13.73l4.17-.22v-13.52s.3-7.31 4.14-7.31c3.85 0 4.15 7.31 4.15 7.31v13.08l4.42-.23V171s.26-6.66 3.54-6.66c3.28 0 3.54 6.66 3.54 6.66v11.3l1.66-.09v-10.77s.2-6.74 2.74-6.74 2.74 6.74 2.74 6.74v10.48l1.59-.08v-9.44s.1-6.74 1.37-6.74 1.37 6.74 1.37 6.74v9.3l3.71-.19v-9.1s.1-6.74 1.37-6.74 1.37 6.74 1.37 6.74v8.96l1.39-.07v-8.11s.1-6.74 1.37-6.74 1.37 6.74 1.37 6.74v7.97l.95-.05v-55.29c-4.86-24.56-99.96-23.46-99.96-23.46m35.24 11.06h-4.86v-6.49h4.86v6.49zm17.8 43.38h-9.13v-16.17s.33-6.91 4.57-6.91 4.57 6.91 4.57 6.91v16.17zm5.79-46.62h3.68v6.63l-3.68-.88v-5.75zm5.42 46.62h-7.08v-16.17s.26-6.91 3.54-6.91c3.28 0 3.54 6.91 3.54 6.91v16.17zm11.28.24-7.19-.24v-14.91s.26-6.51 3.59-6.51 3.6 6.51 3.6 6.51v15.15zm8.39.61-5.74-.3v-14.3s.21-5.89 2.87-5.89 2.87 5.89 2.87 5.89v14.6zm6.31 1.1-4.53-.66v-13.15s.16-5.61 2.26-5.61c2.1 0 2.26 5.61 2.26 5.61v13.81zm4.92 1-3.26-.44v-12.89s.12-5.35 1.63-5.35 1.63 5.35 1.63 5.35v13.33z" fill="#ffffff " data-color="1"></path>
        <path fill="#ffffff " d="M165.88 288.39h2.51l-1.23-2.79-1.28 2.79z" data-color="1"></path>
        <path d="M134.29 285.17c.16-.2.25-.43.25-.67 0-.34-.14-.64-.43-.89-.34-.31-.8-.46-1.38-.46h-1.96v2.72h1.5c.6 0 1.08-.08 1.44-.25.22-.1.42-.24.58-.45" fill="#ffffff " data-color="1"></path>
        <path fill="#ffffff " d="M113.62 288.39h2.52l-1.23-2.79-1.29 2.79z" data-color="1"></path>
        <path d="M151.4 285.17c.16-.2.25-.43.25-.67 0-.34-.14-.64-.43-.89-.34-.31-.8-.46-1.38-.46h-1.97v2.72h1.51c.6 0 1.08-.08 1.44-.25.23-.1.42-.24.58-.45" fill="#ffffff " data-color="1"></path>
        <path d="M167.18 175.96c-44.2 0-87.57 1.15-129.83 3.35v82.15c0 8.25 4.39 15.88 11.52 20.03l106.7 62c7.2 4.18 16.08 4.18 23.28 0l106.7-62a23.16 23.16 0 0 0 11.52-20.03v-82.14c-42.28-2.21-85.67-3.36-129.89-3.36m56.54 22.83h7.96v2.38h-5.38v2.18h5.08v2.38h-5.08v2.38h5.68v2.38h-8.26v-11.7zm-25.44 0h2.58v9.33h4.78v2.38h-7.36v-11.71zm-53.27 0h9.27v2.29h-3.34v9.43h-2.58v-9.43h-3.34v-2.29zm-45.71 0h2.58v9.33h4.78v2.38H99.3v-11.71zm-28.72 4.34c1.14 0 2.07.93 2.07 2.07 0 1.14-.93 2.07-2.07 2.07-1.14 0-2.07-.93-2.07-2.07.01-1.15.93-2.07 2.07-2.07m12.2 62.81H68.52v-41.2h14.27v41.2zm17.86 25.57h-1.72v-4.86l-3.45 4.82-3.48-4.83v4.88h-1.72v-10.25l5.2 7.24 5.17-7.24v10.24zm16.88 0-.61-1.38h-4.08l-.64 1.38h-1.9l4.68-10.1 4.45 10.1h-1.9zm7.96-54h-7.91v28.37h-14.21v-28.37H95.4v-12.77h30.08v12.77zm1.7-27h-2.58v-11.72h2.58v11.72zm6.97 81-3.39-4.45v4.45h-1.72l-.02-10.1h3.7c.49 0 .95.08 1.39.24.43.16.82.39 1.14.68.33.29.58.62.75.99a2.77 2.77 0 0 1-.34 2.89c-.35.44-.78.76-1.29.95-.18.07-.4.13-.64.18-.24.05-.42.08-.53.08l3.07 4.08h-2.12zm17.12 0-3.39-4.45v4.45h-1.72l-.02-10.1h3.7c.49 0 .95.08 1.39.24.43.16.82.39 1.14.68.33.29.58.62.75.99a2.77 2.77 0 0 1-.34 2.89c-.35.44-.78.76-1.29.95-.18.07-.4.13-.64.18-.24.05-.42.08-.53.08l3.07 4.08h-2.12zm18.5 0-.61-1.38h-4.08l-.65 1.38h-1.9l4.68-10.1 4.45 10.1h-1.89zm7.17-25.57h-13.89v-1.98h-8.55v-13.89h8.55v-9.83c-4.45 2.24-7.84 5.62-10.15 10.13-2.32 4.51-3.56 9.7-3.74 15.58h-14.91c.18-4.35.77-8.5 1.79-12.48 1.02-3.97 2.51-7.71 4.49-11.22 1.98-3.51 4.34-6.55 7.08-9.14 2.74-2.58 6.07-4.62 9.99-6.12s8.19-2.24 12.82-2.24h6.52v41.19zm3.39-64.87h-3.34v9.43h-2.58v-9.43h-3.34v-2.29h9.27v2.29zm6.55 90.44-2.75-3.74-2.85 3.98v-10.33H183v4.94l3.56-4.94h2.12l-3.5 4.87 3.84 5.23h-2.14zm2.67-66.77h14.16v28.43h11.54v12.77h-25.7v-41.2zm15.55 58.41h-4.65v2.44h3.5v1.73h-3.5v2.47h4.65v1.72h-6.39v-10.1h6.39v1.74zm16.76 7.94c-.7.34-1.43.51-2.21.51-.92 0-1.77-.23-2.55-.7-.78-.47-1.4-1.09-1.86-1.88-.46-.79-.68-1.65-.68-2.58s.23-1.79.68-2.58c.45-.79 1.07-1.41 1.86-1.87a4.93 4.93 0 0 1 2.55-.69c.72 0 1.4.15 2.06.44.66.29 1.23.71 1.71 1.25l-1.27 1.15c-.33-.36-.71-.63-1.14-.83-.43-.2-.89-.29-1.36-.29-.61 0-1.18.15-1.7.46-.52.31-.93.72-1.23 1.25-.3.53-.45 1.1-.45 1.71 0 .61.15 1.18.45 1.71.3.53.71.95 1.24 1.26.52.31 1.08.47 1.69.47.51 0 .99-.11 1.45-.34.45-.23.85-.54 1.17-.94l1.35 1.08c-.48.61-1.06 1.08-1.76 1.41m17.42.42v-4.19h-4.22v4.19h-1.72v-10.1h1.72v4.18h4.22v-4.18H241l.02 10.1h-1.74zm10.23-45.45v19.88h-14.16v-19.88l-13.25-21.32h15.55l4.81 8.44 4.76-8.44h15.55l-13.26 21.32zm11.18-38.8c-1.14 0-2.07-.93-2.07-2.07 0-1.14.93-2.07 2.07-2.07 1.14 0 2.07.93 2.07 2.07 0 1.15-.93 2.07-2.07 2.07" fill="#ffffff " data-color="1"></path>
    </g>
</svg>