<svg  width= "30px" height= "30px" viewBox="0 0 50 50" fill="none" xmlns="http://www.w3.org/2000/svg">
<path d="M27.3935 12.2673C24.3103 12.2673 21.8008 14.7769 21.8008 17.8601C21.8008 20.9433 24.3103 23.4528 27.3935 23.4528C30.4767 23.4528 32.9863 20.9433 32.9863 17.8601C32.9863 14.7769 30.4767 12.2673 27.3935 12.2673ZM27.3935 21.8549C25.1908 21.8549 23.3987 20.0628 23.3987 17.8601C23.3987 15.6573 25.1908 13.8653 27.3935 13.8653C29.5963 13.8653 31.3884 15.6573 31.3884 17.8601C31.3884 20.0628 29.5963 21.8549 27.3935 21.8549Z" fill="rgb(27, 27, 27)"/>
<path d="M38.0896 7.16746C35.1958 4.27362 31.348 2.67969 27.2557 2.67969C23.1626 2.67969 19.3156 4.27362 16.4217 7.16746C11.0663 12.5221 10.4007 22.597 14.9804 28.7011L27.2557 46.4285L39.5126 28.7259C44.1106 22.597 43.4451 12.5221 38.0896 7.16746ZM38.2167 27.7919L27.2557 43.621L16.2771 27.7671C12.1233 22.2287 12.7185 13.1301 17.5523 8.2972C20.1441 5.70536 23.59 4.27761 27.2557 4.27761C30.9213 4.27761 34.3673 5.70536 36.9599 8.2972C41.7936 13.1301 42.3888 22.2287 38.2167 27.7919Z" fill="rgb(27, 27, 27)"/>
<style xmlns="" id="autoconsent-prehide"/></svg>