<svg width= "30px" height= "30px" viewBox="0 0 50 50" fill="none" xmlns="http://www.w3.org/2000/svg">
<path d="M16.778 37.5549L23.5399 42.7492C24.4124 43.6149 26.3755 44.0477 27.6842 44.0477H35.973C38.5905 44.0477 41.4261 42.0999 42.0805 39.5028L47.3155 23.7036C48.4061 20.6736 46.443 18.0765 43.1711 18.0765H34.4461C33.1374 18.0765 32.0467 16.9944 32.2649 15.4794L33.3555 8.55372C33.7917 6.60588 32.483 4.44161 30.5199 3.79233C28.7749 3.14305 26.5936 4.00876 25.7211 5.30732L16.666 17.6284" stroke="rgb(27, 27, 27)" stroke-width="1.3" stroke-miterlimit="10"/>
<path d="M5.95215 19.8606V16.0625C5.95215 12.9987 7.23786 11.9045 10.2379 11.9045H12.3807C15.3807 11.9045 16.6664 12.9987 16.6664 16.0625V22.3616V26.1483V29.9351V37.5085C16.6664 40.5723 15.3807 41.6664 12.3807 41.6664H10.2379C7.23786 41.6664 5.95215 40.5723 5.95215 37.5085V28.6141" stroke="rgb(27, 27, 27)" stroke-width="1.3" stroke-linecap="round" stroke-linejoin="round"/>
<style xmlns="" id="autoconsent-prehide"/></svg>