<svg preserveAspectRatio="none" data-bbox="0 0 138.67 15.04" viewBox="0 0 138.67 15.04" xmlns="http://www.w3.org/2000/svg" data-type="shape" role="presentation" aria-hidden="true" aria-labelledby="svgcid-yqlq69-f5znbr"><title id="svgcid-yqlq69-f5znbr"></title>
    <g>
        <path d="M0 7.45c4.93-.16 9.86-.39 14.79-.49q15.93-.29 31.87-.51a9.48 9.48 0 0 1 2.25.26 1.13 1.13 0 0 1 .7.79 1.09 1.09 0 0 1-.66.8 4.57 4.57 0 0 1-1.64.25c-9.71-.1-19.42-.1-29.12-.3-6.07-.1-12.13-.4-18.19-.61z"></path>
        <path d="M138.63 7.62c-5.23.18-10.46.41-15.69.51-10.3.18-20.61.3-30.91.43a8 8 0 0 1-2.13-.19c-.39-.1-.68-.54-1-.84.32-.29.59-.75 1-.85a8 8 0 0 1 2.13-.23c8.55.08 17.1.13 25.64.3 7 .14 14 .42 21 .64z"></path>
        <path d="M72.42 8.6a3.44 3.44 0 0 0 3.37-3.15c.14-.74.09-1.52.3-2.24a1.34 1.34 0 0 1 .91-.76 1.24 1.24 0 0 1 .87.73c.5 2-2 5.41-4.06 5.58a8.06 8.06 0 0 1-1.39-.16z"></path>
        <path d="M67.86 6.38c-2.16.38-3 1.22-3.4 3.57a11.94 11.94 0 0 1-.24 1.88 1.39 1.39 0 0 1-.92.8 1.24 1.24 0 0 1-.87-.73c-.44-1.86 1.82-5.19 3.72-5.5a9.77 9.77 0 0 1 1.71-.02z"></path>
        <path d="M64.85 5.63a5.11 5.11 0 0 0-3.9 2.46 5.31 5.31 0 0 1-.58.9 4.28 4.28 0 0 1-.94.51c0-.35-.1-.84.08-1 .82-.86 1.72-1.64 2.61-2.43.22-.19.51-.3.73-.52-2 .32-3.13 1.91-4.61 3.33 0-2.38 4-4.09 7.69-3.57l-1.12.39z"></path>
        <path d="M64.81 5.67h1.88c-2.7.37-3.87 2.24-4.71 4.52-.12.34-.71.5-1.08.75-.06-.45-.29-1-.14-1.34a7.51 7.51 0 0 1 4.08-4z"></path>
        <path d="M73.52 9.17c2.64-.05 3.83-1.79 4.68-3.93.09-.22.09-.52.24-.66a5.1 5.1 0 0 1 .91-.52c.14.32.45.68.4 1-.54 2.49-3.55 4.49-6.23 4.11z"></path>
        <path d="M72.21 8.01c1.52-.59 1.58-1.83 1.58-3.09a3.89 3.89 0 0 1 0-1.18 1.1 1.1 0 0 1 .73-.62.9.9 0 0 1 .73.42c.78 1.61-1.15 4.55-3.04 4.47z"></path>
        <path d="M68.22 6.99a2.24 2.24 0 0 0-1.7 2.31 15.1 15.1 0 0 1 0 1.78 1.1 1.1 0 0 1-.67.78 1 1 0 0 1-.84-.54 3.58 3.58 0 0 1 3.21-4.33z"></path>
        <path d="M53.8 3.3c-1.36.84-2.67 1.69-4 2.44-.22.12-.67-.18-1-.28.13-.41.15-1.08.41-1.18a19.91 19.91 0 0 1 2.85-.75c.54-.08 1.13-.15 1.74-.23z"></path>
        <path d="M86.27 11.89c1.52-.94 2.7-1.74 3.94-2.4.33-.18.88 0 1.33.08-.2.45-.3 1.21-.61 1.3-1.41.42-2.89.66-4.66 1.02z"></path>
        <path d="M74.23 9.63a6.21 6.21 0 0 0 5.69-3.57c.15-.27.6-.37.91-.55 0 .31.16.69 0 .93a6.52 6.52 0 0 1-6.6 3.19z"></path>
        <path d="M58.52 2.98c-2 .92-3.91 1.86-5.88 2.74-.24.11-.6-.07-.9-.11.17-.3.28-.8.53-.88 2-.7 4.11-1.32 6.18-2z"></path>
        <path d="M82 11.96c1.83-.86 3.64-1.74 5.49-2.57a2.41 2.41 0 0 1 1 0c-.16.31-.25.82-.49.9-2 .69-4 1.3-6 1.93z"></path>
        <path d="M83.85 12.3c1.28-.1 2.56-.25 3.84-.28.31 0 .63.42 1 .65-.29.25-.61.74-.86.7-1.34-.2-2.66-.53-4-.82z"></path>
        <path d="m83.57 8.9.41.77h-2c-.82 1.47-2 .6-3 .65a12 12 0 0 0 1.31-.34c1.06-.38 2.1-.86 3.18-1.17a7.58 7.58 0 0 1 2.12-.18c.14 0 .29.31.44.47-.21.13-.45.39-.63.36a16.79 16.79 0 0 1-1.83-.56z"></path>
        <path d="M56.39 2.72c-1.18.1-2.37.26-3.56.25-.39 0-.77-.42-1.16-.64.38-.24.79-.72 1.13-.67 1.23.18 2.44.54 3.66.84z"></path>
        <path d="M71.62 9.79a3.2 3.2 0 0 1-1.86 3.66c-.28.12-.69-.06-1-.1.16-.33.25-.85.51-1a3.4 3.4 0 0 0 2.35-2.56z"></path>
        <path d="M68.67 4.99a3.1 3.1 0 0 1 1.85-3.37c.27-.11.68.08 1 .13-.17.33-.26.85-.53 1a3.59 3.59 0 0 0-2.32 2.24z"></path>
        <path d="M67.9 4.05a4 4 0 0 1 .86-3.28c.23-.26.76-.26 1.15-.39a5.08 5.08 0 0 1-.39 1.07c-.53 1-1.15 1.86-1.62 2.6z"></path>
        <path d="M72.41 11.09a4 4 0 0 1-.89 3.2c-.22.26-.72.27-1.09.4a3.66 3.66 0 0 1 .28-1.08c.56-.91 1.19-1.78 1.7-2.52z"></path>
        <path d="M56.52 5.9c-.31-.57-.05-.69.49-.63l1.75.18c-.44-1.06-.29-1.1 2.68-.89l.07.35-5.06 1z"></path>
        <path d="m68.08 0-.89 4c-.81-1.65-.45-3.79.89-4z"></path>
        <path d="m77.98 9.68 4.12-3.29c-.08 1.39-2.36 3.06-4.12 3.29z"></path>
        <path d="M73.17 10.95a5 5 0 0 1 0 3.54c-.08.24-.49.37-.74.55a2.37 2.37 0 0 1-.14-.83c.23-1.11.59-2.22.88-3.26z"></path>
        <path d="M74.08 10.72c.24 1.11.51 2.22.7 3.34 0 .21-.28.48-.43.72-.13-.24-.37-.47-.38-.71V10.8z"></path>
        <path d="M71.25 9.45a2.37 2.37 0 0 1-1.42 2c-.18.1-.53-.08-.8-.12.11-.26.15-.61.35-.75.59-.38 1.24-.73 1.87-1.13z"></path>
        <path d="M66 3.87c-.16-1-.35-2-.46-3.07 0-.17.28-.38.44-.57.12.21.35.42.36.64v2.94z"></path>
        <path d="M69.06 5.52a2.33 2.33 0 0 1 1.46-2c.18-.09.51.13.78.2-.11.23-.16.54-.34.66-.6.41-1.25.76-1.9 1.14z"></path>
        <path d="M64.59 2.85a12.29 12.29 0 0 1-.58-1.4c-.06-.21.07-.47.11-.71.21.12.53.19.6.37.36.9.66 1.82 1.07 3l-1.27-1.3z"></path>
        <path d="M74.73 10.94c.52.88 1.07 1.75 1.55 2.65.09.17-.08.47-.12.7-.21-.13-.53-.21-.6-.39-.38-.92-.7-1.87-1-2.8z"></path>
        <path d="m75.62 11.24 2.17 2.07-.3.29c-1.15-.28-1.36-1.49-1.87-2.36z"></path>
        <path d="m76.17 11.07 3.23 1.24c-1.17.42-1.69.2-3.23-1.24z"></path>
        <path d="m64.52 2.81.1.94-2.1-2 .34-.37 1.73 1.51z"></path>
        <path d="m56.52 5.88.18.46a20.59 20.59 0 0 1-2.22-.08c-.06 0-.09-.33-.13-.51a2.88 2.88 0 0 1 .72-.15c.5.06 1 .2 1.49.3z"></path>
        <path d="m63.8 3.8-2.9-1.06c1.09-.45 1.81-.15 2.9 1.06z"></path>
    </g>
</svg>